<?xml version="1.0" standalone="no"?>
<!DOCTYPE svg PUBLIC "-//W3C//DTD SVG 20010904//EN"
 "http://www.w3.org/TR/2001/REC-SVG-20010904/DTD/svg10.dtd">
<svg version="1.0" xmlns="http://www.w3.org/2000/svg"
 width="500.000000pt" height="500.000000pt" viewBox="0 0 500.000000 500.000000"
 preserveAspectRatio="xMidYMid meet">
<metadata>
Created by potrace 1.14, written by Peter Selinger 2001-2017
</metadata>
<g transform="translate(0.000000,500.000000) scale(0.100000,-0.100000)"
fill="#000000" stroke="none">
<path d="M3757 4424 c-3 -4 -37 -8 -74 -10 -77 -3 -169 -11 -234 -20 -24 -3
-62 -7 -84 -9 -22 -3 -59 -7 -82 -10 -24 -3 -60 -7 -80 -9 -21 -3 -54 -8 -73
-11 -19 -4 -44 -8 -55 -9 -11 -2 -33 -6 -50 -9 -16 -3 -52 -9 -80 -12 -27 -3
-70 -11 -95 -16 -25 -6 -56 -13 -70 -15 -14 -3 -32 -7 -40 -9 -8 -3 -33 -7
-55 -11 -22 -3 -94 -19 -160 -35 -66 -17 -129 -32 -140 -33 -11 -2 -20 -4 -20
-5 0 -2 -7 -4 -16 -6 -48 -9 -89 -65 -89 -122 0 -7 -4 -13 -10 -13 -5 0 -7 -7
-4 -15 3 -8 2 -20 -2 -27 -5 -7 -9 -29 -10 -48 -1 -19 -3 -35 -4 -35 -3 0 -9
-78 -16 -200 -5 -92 -4 -102 16 -122 43 -47 99 -22 106 47 9 94 16 176 17 207
1 33 22 54 23 24 2 -28 12 -68 23 -89 6 -11 7 -22 4 -26 -3 -3 -1 -6 6 -6 7 0
11 -7 8 -15 -4 -8 -2 -17 2 -20 5 -2 12 -21 15 -40 4 -19 11 -35 16 -35 6 0 9
-3 8 -7 -5 -19 46 -137 97 -223 l26 -45 -7 40 c-4 22 -13 55 -21 73 -7 17 -10
32 -7 32 4 0 2 6 -4 13 -5 6 -12 26 -15 42 -3 17 -13 57 -22 90 -25 90 -26 96
-32 145 -3 25 -8 47 -12 50 -4 3 -7 12 -7 20 0 8 -4 42 -9 75 -15 106 -14 114
5 120 30 10 64 17 83 18 9 1 17 5 17 9 0 4 10 7 23 7 21 -1 48 4 85 15 19 6
66 16 97 20 11 2 20 4 20 5 0 2 9 4 20 6 11 2 34 6 50 9 17 3 50 9 75 12 25 3
53 11 64 16 14 7 16 7 11 -2 -5 -9 -3 -9 11 -2 18 9 80 20 153 28 19 2 48 5
65 8 62 10 132 19 161 22 17 1 30 3 30 4 0 1 23 3 50 6 28 2 77 6 110 9 33 3
66 5 73 5 6 0 18 0 25 0 6 0 44 2 82 5 39 3 130 7 203 9 152 2 136 10 203
-104 24 -41 47 -78 52 -81 5 -3 8 -9 8 -13 -1 -3 27 -57 61 -119 34 -61 63
-118 65 -125 1 -8 10 -20 20 -28 10 -7 14 -14 10 -14 -4 0 6 -25 22 -56 17
-30 31 -62 31 -70 0 -8 4 -14 9 -14 5 0 13 -10 17 -22 4 -13 22 -54 40 -91 18
-37 33 -69 33 -70 0 -3 17 -47 34 -89 8 -20 13 -39 9 -42 -3 -3 0 -6 6 -6 10
0 28 -55 24 -72 -1 -5 3 -8 8 -8 6 0 10 -10 10 -23 0 -20 -8 -25 -62 -37 -35
-7 -65 -14 -68 -15 -31 -8 -79 -19 -95 -21 -11 -1 -21 -3 -22 -4 -2 -2 -11 -3
-20 -4 -10 -1 -36 -8 -57 -14 -22 -6 -42 -9 -44 -7 -3 2 -12 0 -21 -5 -10 -5
-35 -11 -57 -13 -21 -3 -81 -15 -131 -26 -51 -12 -96 -20 -100 -20 -5 1 -10 1
-13 -1 -3 -1 -16 -3 -30 -6 -14 -2 -50 -9 -80 -16 -30 -6 -64 -12 -75 -14 -11
-2 -33 -6 -50 -9 -29 -6 -70 -12 -130 -20 -16 -2 -40 -6 -52 -8 -40 -10 -118
-21 -127 -19 -4 2 -13 -1 -20 -5 -6 -4 -32 -8 -58 -8 -27 0 -48 -3 -48 -7 0
-4 -9 -5 -20 -3 -11 2 -22 0 -24 -4 -6 -9 181 -8 190 2 4 4 13 2 21 -4 9 -9
13 -8 13 0 0 8 5 9 19 1 23 -12 34 -13 28 -2 -3 4 61 8 141 9 235 3 351 8 358
16 4 4 13 2 21 -4 7 -6 13 -8 13 -3 0 5 24 10 53 10 56 2 170 11 227 19 19 2
60 7 90 9 30 3 55 6 55 7 0 1 14 3 30 5 50 4 95 13 105 19 6 3 10 1 10 -6 0
-10 3 -10 12 -1 20 20 25 14 22 -30 -2 -24 -5 -69 -6 -100 -2 -32 -6 -58 -9
-58 -3 0 -6 -6 -6 -12 0 -7 -4 -40 -8 -73 -4 -33 -8 -70 -9 -82 0 -13 -4 -23
-7 -23 -3 0 -5 -10 -4 -22 1 -13 0 -27 -4 -33 -3 -5 -6 -26 -7 -45 0 -19 -4
-42 -7 -50 -4 -8 -9 -26 -11 -40 -3 -14 -5 -25 -6 -25 -1 0 -3 -11 -5 -25 -1
-14 -5 -36 -9 -50 -3 -14 -10 -43 -15 -65 -5 -22 -14 -55 -20 -74 -6 -19 -9
-37 -6 -39 3 -3 1 -10 -4 -16 -6 -7 -12 -23 -14 -36 -3 -14 -11 -38 -18 -55
-6 -16 -13 -34 -15 -40 -14 -55 -59 -148 -67 -136 -1 2 -22 -2 -47 -9 -59 -16
-95 -24 -163 -34 -15 -3 -35 -7 -45 -10 -29 -9 -75 -18 -107 -21 -16 -2 -30
-4 -30 -5 0 -4 -125 -23 -157 -24 -10 0 -18 -3 -18 -6 0 -3 -10 -6 -22 -6 -13
-1 -44 -4 -70 -7 -85 -12 -132 -17 -203 -23 -38 -2 -106 -7 -150 -11 -44 -3
-119 -5 -166 -5 -73 1 -90 -2 -108 -19 -26 -24 -27 -59 -3 -89 17 -21 26 -23
118 -22 141 1 343 13 449 27 28 4 64 8 80 10 17 1 30 4 30 5 0 2 22 5 90 15
28 3 64 9 80 11 17 3 41 7 55 9 14 2 25 4 25 5 0 2 31 8 75 15 19 3 52 9 72
14 20 5 39 6 42 3 4 -3 6 -1 6 4 0 5 10 10 23 10 12 1 31 4 42 7 66 18 118 27
126 22 5 -4 9 -1 9 4 0 6 6 11 13 11 32 0 68 28 88 70 40 84 62 140 72 183 1
6 5 17 8 22 5 9 11 27 25 80 1 6 10 38 19 73 9 34 17 71 18 82 1 11 4 20 8 20
4 0 6 8 4 18 -1 9 1 24 5 32 5 9 11 36 15 60 11 80 17 112 21 134 11 50 16 73
19 101 2 17 6 46 9 65 4 30 9 69 21 180 2 14 4 25 5 25 1 0 4 27 5 60 2 33 4
60 5 60 1 0 4 35 7 78 4 68 1 88 -28 170 -17 50 -36 103 -42 117 -6 14 -11 27
-12 30 -5 15 -21 51 -43 100 -14 30 -25 59 -23 64 1 5 -2 12 -6 15 -12 9 -45
71 -38 71 4 0 -2 15 -13 33 -11 17 -47 84 -79 147 -70 135 -174 322 -232 415
-14 22 -26 43 -26 46 0 15 -50 69 -69 76 -33 11 -376 10 -376 -2 0 -5 -4 -4
-8 3 -5 7 -11 9 -15 6z"/>
<path d="M3456 3883 c-2 -2 -19 -6 -37 -8 -59 -8 -89 -16 -89 -26 0 -5 -11
-11 -24 -15 -27 -6 -88 -66 -94 -91 -9 -39 -9 -93 0 -93 5 0 7 -4 4 -8 -2 -4
9 -23 25 -41 16 -19 29 -31 29 -27 0 3 10 0 23 -8 12 -7 36 -17 52 -21 38 -10
137 -13 150 -5 6 4 30 12 55 19 47 14 143 79 134 92 -2 4 0 10 6 14 5 3 10 15
10 26 0 11 4 18 9 15 14 -9 -4 57 -25 93 -10 17 -24 31 -31 31 -7 0 -13 4 -13
8 0 11 -68 35 -105 38 -16 1 -30 3 -30 4 0 4 -45 6 -49 3z"/>
<path d="M1746 3803 c-6 -7 -29 -13 -53 -15 -7 -1 -13 -5 -13 -9 0 -4 -9 -6
-20 -4 -11 2 -22 0 -25 -6 -4 -5 -15 -9 -26 -9 -10 0 -19 -4 -19 -10 0 -5 -3
-9 -7 -8 -9 2 -75 -19 -118 -38 -52 -22 -110 -47 -115 -49 -3 -1 -23 -10 -45
-20 -22 -10 -42 -19 -45 -20 -3 -1 -45 -21 -95 -44 -49 -24 -92 -42 -94 -41
-2 1 -7 -3 -10 -8 -3 -5 -35 -24 -71 -41 -108 -53 -253 -133 -261 -144 -3 -5
-12 -9 -20 -10 -8 -2 -29 -13 -46 -25 -17 -12 -34 -22 -37 -22 -4 0 -30 -16
-59 -35 -28 -19 -57 -35 -64 -35 -7 0 -13 -5 -13 -10 0 -6 -8 -13 -17 -17 -23
-8 -134 -75 -151 -90 -6 -6 -21 -15 -32 -18 -11 -3 -20 -11 -20 -16 0 -5 -7
-9 -16 -9 -8 0 -12 -4 -9 -10 3 -5 2 -10 -3 -10 -6 0 -13 -12 -16 -26 -12 -48
-6 -606 9 -794 10 -129 15 -175 19 -205 3 -16 8 -64 11 -105 3 -41 8 -86 11
-100 2 -14 7 -47 10 -75 3 -27 11 -56 16 -62 7 -9 7 -13 -1 -13 -9 0 -9 -6 0
-22 7 -13 12 -24 11 -25 -1 -2 -1 -6 -1 -10 1 -5 1 -15 0 -23 -2 -21 37 -81
86 -133 23 -25 39 -47 36 -51 -4 -3 -1 -6 6 -6 6 0 34 -21 60 -47 42 -42 113
-105 200 -180 14 -13 46 -41 71 -63 25 -22 51 -40 58 -40 7 0 10 -5 7 -10 -3
-6 -1 -10 5 -10 6 0 21 -9 33 -21 12 -11 47 -39 77 -62 30 -23 62 -49 71 -57
9 -8 29 -24 44 -35 16 -11 58 -44 94 -72 64 -51 84 -59 127 -47 27 7 45 54 30
81 -6 12 -74 69 -151 129 -77 59 -145 113 -151 119 -6 5 -26 22 -45 37 -69 53
-128 103 -174 143 -13 11 -42 36 -65 55 -68 57 -256 243 -274 272 -17 27 -22
45 -30 123 -3 22 -7 51 -10 65 -3 14 -8 50 -11 80 -3 30 -7 66 -10 80 -2 14
-6 47 -9 73 -3 27 -8 53 -11 58 -4 5 -1 9 5 9 6 0 8 5 4 12 -5 7 -9 33 -10 58
-2 25 -5 86 -8 135 -20 322 -26 575 -15 575 4 0 23 -15 43 -32 63 -55 98 -84
186 -154 47 -38 87 -72 88 -76 2 -4 9 -8 15 -8 7 0 26 -13 43 -30 18 -16 35
-26 38 -23 3 4 6 1 6 -5 0 -5 15 -20 33 -31 18 -11 46 -31 62 -45 17 -14 35
-26 40 -26 6 0 17 -9 25 -20 8 -11 18 -20 22 -20 9 0 94 -57 122 -82 11 -10
23 -18 27 -18 4 0 38 -21 75 -46 37 -26 74 -47 82 -48 7 -1 18 -9 22 -17 8
-12 11 -12 22 0 10 11 10 12 0 7 -7 -4 -15 -1 -18 8 -3 9 -10 16 -14 16 -5 0
-28 19 -53 43 -24 23 -91 85 -148 137 -57 52 -129 121 -160 153 -32 31 -60 57
-63 57 -8 0 -76 73 -76 81 0 4 -9 9 -20 12 -11 3 -20 12 -20 21 0 9 -4 16 -9
16 -16 0 -281 279 -281 296 0 6 14 17 30 24 17 7 30 16 30 20 0 4 15 13 33 21
17 7 34 16 37 19 5 7 155 96 225 135 22 12 58 32 80 45 22 13 74 41 115 62 41
22 80 44 87 50 7 6 13 7 13 4 0 -4 13 2 29 13 15 11 31 18 35 14 3 -3 6 -1 6
5 0 7 3 11 8 10 4 -1 35 12 68 30 34 17 64 28 68 25 3 -4 6 -1 6 6 0 7 5 9 10
6 6 -3 10 -2 10 3 0 5 10 13 23 17 12 4 24 8 27 9 3 2 19 9 35 16 17 7 32 14
35 15 6 2 60 24 80 32 8 3 18 5 23 5 4 -1 7 3 7 9 0 5 4 8 9 4 5 -3 12 -1 15
4 5 7 30 15 74 22 4 0 16 6 27 12 11 6 25 12 31 13 6 1 20 5 31 8 12 4 27 -1
40 -13 11 -11 23 -18 26 -15 2 2 10 -2 17 -11 7 -8 19 -15 26 -15 8 0 14 -4
14 -10 0 -5 7 -10 15 -10 8 0 15 -4 15 -10 0 -5 4 -10 9 -10 13 0 225 -140
229 -151 2 -5 8 -9 13 -9 11 0 100 -60 120 -82 9 -10 18 -15 21 -13 2 3 15 -6
28 -20 13 -14 29 -25 36 -25 7 0 17 -6 21 -13 4 -7 19 -20 33 -29 14 -9 37
-27 52 -40 15 -13 37 -31 50 -41 63 -50 92 -74 115 -94 13 -13 29 -23 34 -23
6 0 7 -4 4 -10 -3 -5 -2 -10 3 -10 5 0 40 -29 78 -65 56 -52 66 -66 54 -74 -8
-6 -22 -15 -30 -21 -75 -53 -257 -170 -266 -170 -7 0 -14 -7 -18 -15 -3 -8
-10 -15 -16 -15 -6 0 -38 -18 -71 -40 -32 -23 -59 -38 -59 -35 0 4 -7 0 -15
-9 -8 -8 -40 -29 -71 -48 -31 -18 -68 -40 -83 -49 -14 -9 -42 -25 -61 -36 -19
-11 -75 -44 -125 -74 -49 -29 -93 -54 -97 -54 -4 0 -13 -6 -20 -13 -6 -6 -18
-12 -24 -12 -7 0 -19 -6 -26 -13 -7 -7 -35 -24 -63 -37 -27 -13 -71 -36 -97
-51 -25 -15 -49 -26 -52 -23 -3 2 -1 -2 4 -8 9 -10 13 -10 19 0 5 8 12 14 17
14 5 0 19 4 32 9 13 5 29 9 35 9 7 0 21 7 31 15 11 8 25 15 32 15 7 0 34 10
61 22 26 11 53 22 59 23 6 2 42 16 80 33 64 29 122 53 134 57 3 1 28 12 55 24
28 13 64 29 80 36 17 7 60 27 96 44 36 17 71 31 77 31 7 0 12 4 12 8 0 7 50
31 78 37 8 2 21 10 30 18 10 8 34 20 55 28 20 7 37 16 37 19 0 4 16 12 35 20
19 8 35 18 35 22 0 5 4 7 9 4 5 -3 14 1 21 9 7 8 16 13 20 10 4 -3 13 2 20 10
7 8 19 15 27 15 7 0 16 7 19 15 4 8 10 13 14 10 5 -3 11 -1 15 5 4 6 11 8 16
5 5 -4 9 -1 9 6 0 7 3 9 7 5 19 -19 20 -821 1 -858 -5 -10 -4 -19 2 -23 6 -4
8 -10 6 -14 -3 -4 -8 -52 -11 -106 -6 -97 -11 -154 -21 -209 -5 -28 -103 -136
-123 -136 -5 0 -11 -4 -13 -9 -1 -5 -43 -41 -93 -80 -49 -39 -96 -76 -102 -81
-7 -6 -13 -8 -13 -5 0 3 -10 -3 -22 -15 -12 -11 -25 -20 -29 -20 -4 0 -14 -6
-21 -13 -15 -14 -115 -80 -138 -90 -8 -4 -37 -21 -65 -37 -27 -17 -93 -51
-145 -77 -52 -26 -98 -51 -101 -56 -3 -5 -9 -8 -13 -8 -3 1 -8 0 -11 0 -3 -1
-8 -2 -12 -3 -5 -1 -26 -11 -48 -21 -22 -10 -42 -19 -45 -19 -3 -1 -18 -7 -35
-13 -44 -18 -89 -36 -95 -38 -26 -9 -39 -19 -34 -26 3 -5 0 -9 -7 -9 -17 0 -3
-60 19 -76 24 -19 53 -17 119 8 32 12 60 23 63 23 3 1 18 7 33 13 16 7 33 12
38 12 5 0 9 4 9 9 0 5 12 12 28 16 27 7 238 109 258 126 6 5 14 6 17 2 4 -3 7
-1 7 5 0 6 10 14 22 18 12 3 39 19 61 35 22 16 46 29 54 29 7 0 13 3 13 8 0 4
17 16 37 27 20 11 41 25 47 30 6 6 28 21 49 34 20 12 37 27 37 32 0 5 3 8 8 7
6 -3 129 86 142 102 3 4 27 23 53 43 27 21 45 37 41 37 -3 0 6 10 22 22 46 35
104 100 109 123 3 11 7 36 9 55 3 19 5 35 6 35 1 0 3 20 5 45 2 25 6 65 9 90
18 166 29 833 15 942 -3 26 -1 54 3 63 5 8 5 15 1 15 -4 0 -9 35 -10 77 -1 43
-8 89 -15 103 -15 28 -189 203 -258 259 -24 20 -57 48 -72 64 -15 15 -31 27
-35 27 -4 0 -25 16 -45 35 -20 19 -39 35 -42 35 -6 0 -37 25 -84 68 -14 12
-31 22 -38 22 -8 0 -14 4 -14 9 0 5 -16 19 -35 31 -20 12 -41 27 -48 33 -7 7
-20 17 -29 22 -8 6 -69 46 -134 91 -66 44 -127 83 -137 87 -9 3 -17 11 -17 17
0 5 -6 10 -14 10 -8 0 -21 6 -28 13 -8 6 -25 18 -38 26 -14 8 -46 28 -71 43
-25 16 -56 30 -67 31 -12 1 -22 5 -22 9 0 10 -14 10 -24 1z"/>
<path d="M1523 3134 c-222 -46 -230 -262 -11 -318 80 -20 178 -12 244 22 38
20 93 62 81 62 -4 0 2 14 13 32 15 25 17 36 8 52 -6 12 -11 23 -10 26 4 11
-10 40 -19 40 -6 0 -7 5 -4 10 3 6 2 10 -3 10 -4 0 -18 9 -30 20 -12 12 -22
18 -22 15 0 -3 -10 1 -22 9 -45 29 -140 37 -225 20z"/>
<path d="M4133 2825 c-57 -17 -100 -50 -121 -93 -22 -47 -22 -59 6 -104 19
-31 55 -54 97 -63 6 -1 12 -3 15 -4 14 -8 110 -6 110 2 0 4 4 6 9 3 12 -8 90
26 116 50 29 27 51 66 50 89 -1 32 -26 85 -41 85 -8 0 -14 4 -14 9 0 29 -157
47 -227 26z"/>
<path d="M3233 2743 c-67 -34 -93 -62 -98 -109 -5 -36 -1 -45 32 -81 41 -44
95 -66 173 -68 52 -2 140 25 168 52 41 39 62 121 33 131 -6 2 -11 9 -11 16 0
19 -44 51 -78 57 -4 0 -16 6 -27 12 -11 6 -48 11 -82 12 -48 1 -74 -4 -110
-22z"/>
<path d="M538 2433 c-86 -35 -92 -216 -10 -309 44 -50 69 -62 115 -58 46 4 87
40 87 74 0 10 4 21 9 24 14 9 -4 130 -25 164 -8 12 -12 22 -9 22 3 0 -3 10
-15 22 -11 12 -20 25 -20 29 0 6 -56 33 -70 34 -3 0 -9 3 -15 7 -5 3 -27 -1
-47 -9z"/>
<path d="M2615 2428 c-44 -26 -83 -78 -102 -133 -19 -56 -24 -103 -12 -111 5
-2 6 -10 3 -17 -7 -18 48 -70 77 -72 13 -1 33 1 44 5 11 4 25 9 30 10 19 4 73
67 95 110 26 51 31 136 10 175 -26 48 -94 64 -145 33z"/>
<path d="M4100 2217 c-3 -3 -17 -7 -32 -9 -35 -5 -113 -56 -129 -84 -14 -28
-19 -75 -8 -89 4 -5 7 -14 6 -20 -1 -13 72 -64 98 -68 11 -1 25 -5 30 -8 9 -6
117 -4 123 1 1 1 7 4 12 5 6 1 13 4 18 5 4 1 10 2 15 1 4 0 7 4 7 10 0 5 5 7
10 4 6 -3 10 -1 10 5 0 6 3 9 8 7 9 -6 63 49 55 57 -4 3 -1 6 6 6 7 0 11 6 8
13 -2 6 -1 19 4 28 8 16 -29 94 -46 94 -6 0 -22 8 -36 18 -25 17 -148 35 -159
24z"/>
<path d="M3252 2135 c-58 -13 -115 -53 -136 -93 -32 -65 19 -151 102 -170 37
-8 138 -6 159 3 10 5 26 7 36 6 9 -1 17 2 17 8 0 5 9 13 20 16 26 8 72 69 74
98 1 12 -3 33 -10 47 -13 27 -54 77 -54 66 0 -3 -12 0 -27 8 -39 19 -120 24
-181 11z"/>
<path d="M1432 1937 c-1 -50 -3 -152 -5 -224 -1 -73 -6 -133 -10 -133 -4 0 -3
-8 2 -19 6 -10 7 -21 4 -25 -11 -10 -20 -724 -10 -766 12 -50 31 -100 39 -100
5 0 16 -7 24 -15 41 -41 103 9 120 96 9 46 12 139 4 139 -3 0 -6 15 -7 33 0
17 -3 57 -7 87 -14 129 -16 153 -22 188 -3 20 -7 51 -9 67 -5 36 -15 99 -21
140 -3 17 -7 57 -10 90 -2 33 -8 80 -13 105 -5 25 -12 65 -16 90 -3 25 -8 56
-10 70 -2 14 -6 48 -10 75 -3 28 -8 66 -11 85 -3 19 -6 51 -8 70 -7 69 -21 38
-24 -53z"/>
<path d="M2297 1896 c-56 -34 -128 -140 -112 -165 3 -5 1 -12 -3 -15 -14 -8
-4 -75 15 -107 16 -27 50 -45 84 -44 25 1 99 37 93 46 -2 4 4 13 14 18 24 13
59 93 66 150 5 44 -10 89 -40 119 -23 22 -79 22 -117 -2z"/>
<path d="M968 1501 c-64 -62 -57 -203 15 -291 40 -51 114 -78 158 -58 30 13
64 62 54 78 -3 6 -2 10 3 10 15 0 6 90 -14 140 -32 80 -92 131 -157 135 -28 1
-48 -3 -59 -14z"/>
<path d="M1960 1369 c-25 -10 -41 -18 -36 -18 5 -1 -4 -12 -20 -26 -16 -14
-29 -29 -29 -35 0 -5 -7 -18 -15 -28 -30 -37 -36 -142 -9 -176 11 -13 19 -30
19 -37 0 -7 3 -9 7 -6 3 4 12 2 19 -4 17 -14 64 -6 100 17 40 25 84 76 84 96
0 9 4 18 9 20 12 4 23 61 22 111 0 23 -9 46 -21 59 -11 12 -20 25 -20 28 0 4
-6 7 -12 8 -7 0 -22 2 -33 5 -11 3 -40 -3 -65 -14z"/>
</g>
</svg>
